<?xml version="1.0" encoding="UTF-8"?>
<svg id="Layer_1" data-name="Layer 1" xmlns="http://www.w3.org/2000/svg" xmlns:xlink="http://www.w3.org/1999/xlink" viewBox="0 0 414.61 564.98">
  <defs>
    <style>
      .cls-1 {
        fill: url(#linear-gradient-13);
      }

      .cls-2 {
        fill: url(#linear-gradient-2);
      }

      .cls-3 {
        fill: url(#linear-gradient-10);
      }

      .cls-4 {
        fill: url(#linear-gradient-12);
      }

      .cls-5 {
        fill: url(#linear-gradient-4);
      }

      .cls-6 {
        fill: url(#linear-gradient-3);
      }

      .cls-7 {
        fill: url(#linear-gradient-5);
      }

      .cls-8 {
        fill: url(#linear-gradient-8);
      }

      .cls-9 {
        fill: url(#linear-gradient-14);
      }

      .cls-10 {
        fill: url(#linear-gradient-7);
      }

      .cls-11 {
        fill: url(#linear-gradient-9);
      }

      .cls-12 {
        fill: url(#linear-gradient-11);
      }

      .cls-13 {
        fill: url(#linear-gradient-6);
      }

      .cls-14 {
        fill: url(#linear-gradient);
      }
    </style>
    <linearGradient id="linear-gradient" x1="55.63" y1="595.9" x2="385.03" y2="266.49" gradientUnits="userSpaceOnUse">
      <stop offset="0" stop-color="#750a37"/>
      <stop offset="1" stop-color="#d82270"/>
    </linearGradient>
    <linearGradient id="linear-gradient-2" x1="-22.15" y1="518.13" x2="307.26" y2="188.72" xlink:href="#linear-gradient"/>
    <linearGradient id="linear-gradient-3" x1="33.85" y1="574.12" x2="363.25" y2="244.71" xlink:href="#linear-gradient"/>
    <linearGradient id="linear-gradient-4" x1="-89.9" y1="450.37" x2="239.5" y2="120.96" xlink:href="#linear-gradient"/>
    <linearGradient id="linear-gradient-5" x1="-61.5" y1="478.78" x2="267.91" y2="149.37" xlink:href="#linear-gradient"/>
    <linearGradient id="linear-gradient-6" x1="-12.82" y1="527.45" x2="316.58" y2="198.04" xlink:href="#linear-gradient"/>
    <linearGradient id="linear-gradient-7" x1="-10.28" y1="530" x2="319.13" y2="200.59" xlink:href="#linear-gradient"/>
    <linearGradient id="linear-gradient-8" x1="-10.28" y1="530" x2="319.13" y2="200.59" xlink:href="#linear-gradient"/>
    <linearGradient id="linear-gradient-9" x1="-157.15" y1="383.12" x2="172.25" y2="53.71" xlink:href="#linear-gradient"/>
    <linearGradient id="linear-gradient-10" x1="-149.72" y1="390.55" x2="179.69" y2="61.15" xlink:href="#linear-gradient"/>
    <linearGradient id="linear-gradient-11" x1="-126.31" y1="413.96" x2="203.1" y2="84.56" xlink:href="#linear-gradient"/>
    <linearGradient id="linear-gradient-12" x1="-64.77" y1="475.5" x2="264.63" y2="146.09" xlink:href="#linear-gradient"/>
    <linearGradient id="linear-gradient-13" x1="-109.89" y1="430.38" x2="219.52" y2="100.97" xlink:href="#linear-gradient"/>
    <linearGradient id="linear-gradient-14" x1="-17.88" y1="522.4" x2="311.53" y2="192.99" xlink:href="#linear-gradient"/>
  </defs>
  <path class="cls-14" d="M230.86,367.98h98.05c-20.67,38.2-61.66,65.01-105.73,65.01l7.68-65.01Z"/>
  <path class="cls-2" d="M375.88,40.96l-27.64,233.94c-4.99-.97-10.21-1.48-15.59-1.48h-90.62l14.9-126.08c6.94-58.75,60.2-106.38,118.95-106.38Z"/>
  <path class="cls-6" d="M331.49,283.27c5.4,0,10.61.57,15.56,1.65l-4.93,41.69c-1.3,10.97-4.2,21.55-8.47,31.52h-101.63l8.84-74.86h90.62Z"/>
  <path class="cls-5" d="M167.22,172.95l-11.87,100.47H49.13c9.69-56.01,61.34-100.47,118.09-100.47Z"/>
  <path class="cls-7" d="M154.19,283.27l-8.84,74.86h-78.8c-9.73,0-18.83-1.85-26.96-5.22l8.23-69.64h106.38Z"/>
  <path class="cls-13" d="M65.38,367.98h78.8l-10.71,90.62c-6.94,58.75-60.2,106.38-118.95,106.38l23.82-201.61c8.29,2.99,17.38,4.61,27.04,4.61Z"/>
  <path class="cls-10" d="M397.5,358.13H66.54c-9.73,0-18.83-1.85-26.96-5.22C13.18,341.92-3.21,314.89.53,283.27h330.96c5.4,0,10.61.57,15.56,1.65,32.93,7.23,54.7,37.25,50.45,73.21Z"/>
  <path class="cls-8" d="M397.5,358.13H66.54c-9.73,0-18.83-1.85-26.96-5.22C13.18,341.92-3.21,314.89.53,283.27h330.96c5.4,0,10.61.57,15.56,1.65,32.93,7.23,54.7,37.25,50.45,73.21Z"/>
  <g>
    <path class="cls-11" d="M64.93,183.43c-.57,1.29-.85,2.53-2.61,2.6-5.03.18-8.99,2.34-12.65,5.91-2.35,2.29-3.82,4.87-4.42,7.73-.4,1.9-.82,3.89-1.08,5.86-.16,1.2-.34,2.53-1.8,2.64-1.55.11-2.6-.73-3.05-2.36-.81-2.94-.56-6.04-1.6-8.95-.79-2.21-2.24-3.94-3.7-5.66-3.36-3.96-7.73-5.54-12.86-5.22-1.71.11-2.78-.87-2.8-2.46-.01-1.5,1.12-2.39,2.62-2.69,3.71-.74,7.47-1.06,10.66-3.61,4.77-3.81,7.39-8.64,7.79-14.63.13-1.95,1.22-2.62,2.74-2.95,1.73-.37,1.73,1.04,2.03,2.18.58,2.22.84,4.49,1.79,6.67,2.64,6.08,6.76,10.15,13.46,11.52,1.3.27,2.61.71,3.97.91,1.52.22.87,1.77,1.52,2.52Z"/>
    <path class="cls-3" d="M93.72,159.68c-1.28-.2-1.46-1.04-1.58-1.93-.35-2.57-.77-5.05-2.83-7-1.57-1.49-3.28-2.35-5.41-2.46-1.01-.05-2.32.12-2.39-1.26-.06-1.16,1.13-1.37,2.07-1.5,5.28-.72,7.98-3.94,8.69-9.03.14-1.02.55-1.69,1.56-1.7.97-.01,1,.97,1.09,1.57.7,5.17,3.72,8.12,8.7,9.19.92.2,1.79.33,1.7,1.47-.09,1.09-.99,1.18-1.9,1.33-4.77.83-7.23,3.43-8.31,8.26-.23,1.04.1,2.63-1.39,3.05Z"/>
    <path class="cls-12" d="M37.72,261.35c-.08.76-.49,1.22-1.45,1.36-5.09.76-8.21,3.53-8.83,8.8-.06.54-.26,1.06-.39,1.59-.12.49-.34.9-.89.95-.6.05-1.13-.21-1.32-.78-.27-.81-.47-1.66-.6-2.51-.83-5.19-3.35-7.65-8.43-8.07-.94-.08-1.87-.19-1.91-1.27-.03-.89.79-1.28,1.64-1.39,5.53-.7,8.52-3.9,9.17-9.38.1-.83.54-1.29,1.31-1.44,1.08-.21,1.17.76,1.25,1.34.74,5.46,3.89,8.51,9.23,9.51.89.17,1.19.57,1.24,1.27Z"/>
  </g>
  <g>
    <path class="cls-4" d="M363.57,23.86c.57,1.29.85,2.53,2.61,2.6,5.03.18,8.99,2.34,12.65,5.91,2.35,2.29,3.82,4.87,4.42,7.73.4,1.9.82,3.89,1.08,5.86.16,1.2.34,2.53,1.8,2.64,1.55.11,2.6-.73,3.05-2.36.81-2.94.56-6.04,1.6-8.95.79-2.21,2.24-3.94,3.7-5.66,3.36-3.96,7.73-5.54,12.86-5.22,1.71.11,2.78-.87,2.8-2.46.01-1.5-1.12-2.39-2.62-2.69-3.71-.74-7.47-1.06-10.66-3.61-4.77-3.81-7.39-8.64-7.79-14.63-.13-1.95-1.22-2.62-2.74-2.95-1.73-.37-1.73,1.04-2.03,2.18-.58,2.22-.84,4.49-1.79,6.67-2.64,6.08-6.76,10.15-13.46,11.52-1.3.27-2.61.71-3.97.91-1.52.22-.87,1.77-1.52,2.52Z"/>
    <path class="cls-1" d="M263.86,69.06c1.28-.2,1.46-1.04,1.58-1.93.35-2.57.77-5.05,2.83-7,1.57-1.49,3.28-2.35,5.41-2.46,1.01-.05,2.32.12,2.39-1.26.06-1.16-1.13-1.37-2.07-1.5-5.28-.72-7.98-3.94-8.69-9.03-.14-1.02-.55-1.69-1.56-1.7-.97-.01-1,.97-1.09,1.57-.7,5.17-3.72,8.12-8.7,9.19-.92.2-1.79.33-1.7,1.47.09,1.09.99,1.18,1.9,1.33,4.77.83,7.23,3.43,8.31,8.26.23,1.04-.1,2.63,1.39,3.05Z"/>
    <path class="cls-9" d="M390.78,101.78c.08.76.49,1.22,1.45,1.36,5.09.76,8.21,3.53,8.83,8.8.06.54.26,1.06.39,1.59.12.49.34.9.89.95.6.05,1.13-.21,1.32-.78.27-.81.47-1.66.6-2.51.83-5.19,3.35-7.65,8.43-8.07.94-.08,1.87-.19,1.91-1.27.03-.89-.79-1.28-1.64-1.39-5.53-.7-8.52-3.9-9.17-9.38-.1-.83-.54-1.29-1.31-1.44-1.08-.21-1.17.76-1.25,1.34-.74,5.46-3.89,8.51-9.23,9.51-.89.17-1.19.57-1.24,1.27Z"/>
  </g>
</svg>