<?xml version="1.0" encoding="UTF-8"?>
<svg id="Layer_1" data-name="Layer 1" xmlns="http://www.w3.org/2000/svg" version="1.1" xmlns:xlink="http://www.w3.org/1999/xlink" viewBox="0 0 1920 1080">
  <defs>
    <style>
      .cls-1 {
        fill: url(#linear-gradient-12);
      }

      .cls-1, .cls-2, .cls-3, .cls-4, .cls-5, .cls-6, .cls-7, .cls-8, .cls-9, .cls-10, .cls-11, .cls-12, .cls-13, .cls-14, .cls-15 {
        stroke-width: 0px;
      }

      .cls-2 {
        fill: url(#linear-gradient-6);
      }

      .cls-3 {
        fill: url(#linear-gradient-15);
      }

      .cls-4 {
        fill: url(#linear-gradient-11);
      }

      .cls-5 {
        fill: url(#linear-gradient-5);
      }

      .cls-6 {
        fill: url(#linear-gradient-13);
      }

      .cls-7 {
        fill: url(#linear-gradient-14);
      }

      .cls-8 {
        fill: url(#linear-gradient-2);
      }

      .cls-9 {
        fill: url(#linear-gradient-7);
      }

      .cls-10 {
        fill: url(#linear-gradient-3);
      }

      .cls-11 {
        display: none;
        fill: url(#linear-gradient);
      }

      .cls-12 {
        fill: url(#linear-gradient-9);
      }

      .cls-13 {
        fill: url(#linear-gradient-8);
      }

      .cls-14 {
        fill: url(#linear-gradient-10);
      }

      .cls-15 {
        fill: url(#linear-gradient-4);
      }
    </style>
    <linearGradient id="linear-gradient" x1="476.75" y1="-1894.25" x2="-1035.75" y2="-381.75" gradientTransform="translate(2097.5 258.5) rotate(-90)" gradientUnits="userSpaceOnUse">
      <stop offset=".24" stop-color="#750a37"/>
      <stop offset="1" stop-color="#cb1e68"/>
    </linearGradient>
    <linearGradient id="linear-gradient-2" x1="756.69" y1="822.17" x2="1362.12" y2="390.17" gradientTransform="matrix(1,0,0,1,0,0)" xlink:href="#linear-gradient"/>
    <linearGradient id="linear-gradient-3" x1="648.1" y1="669.98" x2="1253.53" y2="237.98" gradientTransform="matrix(1,0,0,1,0,0)" xlink:href="#linear-gradient"/>
    <linearGradient id="linear-gradient-4" x1="725.28" y1="778.14" x2="1330.71" y2="346.14" gradientTransform="matrix(1,0,0,1,0,0)" xlink:href="#linear-gradient"/>
    <linearGradient id="linear-gradient-5" x1="598.93" y1="601.07" x2="1204.36" y2="169.07" gradientUnits="userSpaceOnUse">
      <stop offset=".24" stop-color="#750a37"/>
      <stop offset=".85" stop-color="#bb1a5f"/>
      <stop offset="1" stop-color="#cb1e68"/>
    </linearGradient>
    <linearGradient id="linear-gradient-6" x1="639.51" y1="657.95" x2="1244.94" y2="225.95" gradientTransform="matrix(1,0,0,1,0,0)" xlink:href="#linear-gradient"/>
    <linearGradient id="linear-gradient-7" x1="706.62" y1="752" x2="1312.05" y2="320" gradientTransform="matrix(1,0,0,1,0,0)" xlink:href="#linear-gradient"/>
    <linearGradient id="linear-gradient-8" x1="685.59" y1="722.52" x2="1291.02" y2="290.52" gradientTransform="matrix(1,0,0,1,0,0)" xlink:href="#linear-gradient"/>
    <linearGradient id="linear-gradient-9" x1="685.59" y1="722.52" x2="1291.02" y2="290.52" gradientTransform="matrix(1,0,0,1,0,0)" xlink:href="#linear-gradient"/>
    <linearGradient id="linear-gradient-10" x1="528.8" y1="502.79" x2="1134.23" y2="70.79" gradientTransform="matrix(1,0,0,1,0,0)" xlink:href="#linear-gradient"/>
    <linearGradient id="linear-gradient-11" x1="528.84" y1="502.84" x2="1134.27" y2="70.84" gradientTransform="matrix(1,0,0,1,0,0)" xlink:href="#linear-gradient"/>
    <linearGradient id="linear-gradient-12" x1="570.56" y1="561.32" x2="1175.99" y2="129.32" gradientTransform="matrix(1,0,0,1,0,0)" xlink:href="#linear-gradient"/>
    <linearGradient id="linear-gradient-13" x1="583.01" y1="578.77" x2="1188.44" y2="146.77" gradientTransform="matrix(1,0,0,1,0,0)" xlink:href="#linear-gradient"/>
    <linearGradient id="linear-gradient-14" x1="548.28" y1="530.09" x2="1153.71" y2="98.09" gradientTransform="matrix(1,0,0,1,0,0)" xlink:href="#linear-gradient"/>
    <linearGradient id="linear-gradient-15" x1="639.26" y1="657.6" x2="1244.69" y2="225.6" gradientTransform="matrix(1,0,0,1,0,0)" xlink:href="#linear-gradient"/>
  </defs>
  <rect class="cls-11" x="410.5" y="-425.5" width="1098" height="1927" transform="translate(421.5 1497.5) rotate(-90)"/>
  <path class="cls-8" d="M973.26,610.58h130.71c-27.55,50.92-82.2,86.67-140.95,86.67l10.24-86.67Z"/>
  <path class="cls-10" d="M1166.59,174.61l-36.85,311.87c-6.65-1.29-13.61-1.97-20.78-1.97h-120.81l19.86-168.08c9.25-78.32,80.26-141.82,158.58-141.82Z"/>
  <path class="cls-15" d="M1107.41,497.65c7.2,0,14.14.76,20.75,2.21l-6.57,55.57c-1.73,14.63-5.6,28.73-11.29,42.02h-135.49l11.79-99.8h120.81Z"/>
  <path class="cls-5" d="M888.42,350.57l-15.83,133.94h-141.61c12.92-74.67,81.77-133.94,157.44-133.94Z"/>
  <path class="cls-2" d="M871.04,497.65l-11.79,99.8h-105.05c-12.97,0-25.1-2.47-35.95-6.96l10.97-92.84h141.82Z"/>
  <path class="cls-9" d="M752.65,610.58h105.05l-14.27,120.81c-9.25,78.32-80.26,141.82-158.58,141.82l31.76-268.78c11.06,3.99,23.17,6.15,36.04,6.15Z"/>
  <path class="cls-13" d="M1195.42,597.44h-441.22c-12.97,0-25.1-2.47-35.95-6.96-35.19-14.65-57.04-50.69-52.06-92.84h441.22c7.2,0,14.14.76,20.75,2.21,43.9,9.64,72.92,49.66,67.26,97.59Z"/>
  <path class="cls-12" d="M1195.42,597.44h-441.22c-12.97,0-25.1-2.47-35.95-6.96-35.19-14.65-57.04-50.69-52.06-92.84h441.22c7.2,0,14.14.76,20.75,2.21,43.9,9.64,72.92,49.66,67.26,97.59Z"/>
  <g>
    <path class="cls-14" d="M752.05,364.53c-.76,1.71-1.14,3.38-3.47,3.46-6.71.24-11.99,3.12-16.87,7.87-3.14,3.06-5.09,6.5-5.89,10.3-.53,2.54-1.1,5.19-1.45,7.82-.21,1.6-.45,3.38-2.39,3.52-2.07.15-3.46-.97-4.07-3.15-1.08-3.92-.75-8.05-2.14-11.93-1.06-2.95-2.99-5.25-4.93-7.54-4.48-5.29-10.31-7.39-17.15-6.95-2.28.15-3.71-1.17-3.73-3.28-.02-2,1.5-3.19,3.49-3.59,4.94-.99,9.96-1.41,14.22-4.81,6.35-5.08,9.85-11.52,10.39-19.51.17-2.6,1.63-3.5,3.65-3.93,2.3-.49,2.31,1.38,2.7,2.9.77,2.96,1.12,5.99,2.38,8.89,3.52,8.11,9.01,13.53,17.94,15.35,1.74.36,3.48.95,5.3,1.21,2.02.3,1.16,2.36,2.02,3.36Z"/>
    <path class="cls-4" d="M790.44,332.87c-1.71-.27-1.95-1.38-2.11-2.57-.47-3.43-1.03-6.73-3.78-9.33-2.09-1.98-4.38-3.13-7.21-3.28-1.35-.07-3.09.16-3.19-1.68-.08-1.55,1.51-1.83,2.76-2,7.05-.96,10.64-5.25,11.59-12.03.19-1.36.73-2.25,2.08-2.27,1.29-.02,1.34,1.29,1.45,2.1.93,6.89,4.96,10.83,11.59,12.25,1.23.26,2.39.44,2.27,1.96-.12,1.45-1.32,1.57-2.53,1.78-6.36,1.11-9.64,4.57-11.08,11.02-.31,1.38.14,3.51-1.85,4.07Z"/>
    <path class="cls-1" d="M715.77,468.42c-.11,1.02-.66,1.63-1.94,1.82-6.78,1.01-10.95,4.7-11.78,11.73-.08.72-.35,1.42-.52,2.12-.16.65-.46,1.2-1.19,1.26-.8.07-1.51-.28-1.76-1.04-.36-1.09-.62-2.22-.8-3.35-1.1-6.92-4.46-10.19-11.23-10.76-1.25-.11-2.5-.26-2.55-1.69-.04-1.19,1.06-1.7,2.18-1.85,7.38-.94,11.36-5.21,12.23-12.5.13-1.11.71-1.72,1.74-1.92,1.45-.28,1.56,1.01,1.66,1.79.99,7.28,5.19,11.35,12.3,12.68,1.18.22,1.58.75,1.66,1.7Z"/>
  </g>
  <g>
    <path class="cls-6" d="M1150.18,151.8c.76,1.71,1.14,3.38,3.47,3.46,6.71.24,11.99,3.12,16.87,7.87,3.14,3.06,5.09,6.5,5.89,10.3.53,2.54,1.1,5.19,1.45,7.82.21,1.6.45,3.38,2.39,3.52,2.07.15,3.46-.97,4.07-3.15,1.08-3.92.75-8.05,2.14-11.93,1.06-2.95,2.99-5.25,4.93-7.54,4.48-5.29,10.31-7.39,17.15-6.95,2.28.15,3.71-1.17,3.73-3.28.02-2-1.5-3.19-3.49-3.59-4.94-.99-9.96-1.41-14.22-4.81-6.35-5.08-9.85-11.52-10.39-19.51-.17-2.6-1.63-3.5-3.65-3.93-2.3-.49-2.31,1.38-2.7,2.9-.77,2.96-1.12,5.99-2.38,8.89-3.52,8.11-9.01,13.53-17.94,15.35-1.74.36-3.48.95-5.3,1.21-2.02.3-1.16,2.36-2.02,3.36Z"/>
    <path class="cls-7" d="M1017.25,212.06c1.71-.27,1.95-1.38,2.11-2.57.47-3.43,1.03-6.73,3.78-9.33,2.09-1.98,4.38-3.13,7.21-3.28,1.35-.07,3.09.16,3.19-1.68.08-1.55-1.51-1.83-2.76-2-7.05-.96-10.64-5.25-11.59-12.03-.19-1.36-.73-2.25-2.08-2.27-1.29-.02-1.34,1.29-1.45,2.1-.93,6.89-4.96,10.83-11.59,12.25-1.23.26-2.39.44-2.27,1.96.12,1.45,1.32,1.57,2.53,1.78,6.36,1.11,9.64,4.57,11.08,11.02.31,1.38-.14,3.51,1.85,4.07Z"/>
    <path class="cls-3" d="M1186.46,255.69c.11,1.02.66,1.63,1.94,1.82,6.78,1.01,10.95,4.7,11.78,11.73.08.72.35,1.42.52,2.12.16.65.46,1.2,1.19,1.26.8.07,1.51-.28,1.76-1.04.36-1.09.62-2.22.8-3.35,1.1-6.92,4.46-10.19,11.23-10.76,1.25-.11,2.5-.26,2.55-1.69.04-1.19-1.06-1.7-2.18-1.85-7.38-.94-11.36-5.21-12.23-12.5-.13-1.11-.71-1.72-1.74-1.92-1.45-.28-1.56,1.01-1.66,1.79-.99,7.28-5.19,11.35-12.3,12.68-1.18.22-1.58.75-1.66,1.7Z"/>
  </g>
</svg>